<?xml version="1.0" encoding="UTF-8" standalone="no"?>
<svg
   xmlns:dc="http://purl.org/dc/elements/1.1/"
   xmlns:cc="http://creativecommons.org/ns#"
   xmlns:rdf="http://www.w3.org/1999/02/22-rdf-syntax-ns#"
   xmlns:svg="http://www.w3.org/2000/svg"
   xmlns="http://www.w3.org/2000/svg"
   xmlns:sodipodi="http://sodipodi.sourceforge.net/DTD/sodipodi-0.dtd"
   xmlns:inkscape="http://www.inkscape.org/namespaces/inkscape"
   fill="none"
   viewBox="0 0 143 32"
   version="1.1"
   id="svg2023"
   sodipodi:docname="logo-big.svg"
   inkscape:version="0.92.3 (2405546, 2018-03-11)">
  <metadata
     id="metadata2029">
    <rdf:RDF>
      <cc:Work
         rdf:about="">
        <dc:format>image/svg+xml</dc:format>
        <dc:type
           rdf:resource="http://purl.org/dc/dcmitype/StillImage" />
        <dc:title></dc:title>
      </cc:Work>
    </rdf:RDF>
  </metadata>
  <defs
     id="defs2027" />
  <sodipodi:namedview
     pagecolor="#ffffff"
     bordercolor="#666666"
     borderopacity="1"
     objecttolerance="10"
     gridtolerance="10"
     guidetolerance="10"
     inkscape:pageopacity="0"
     inkscape:pageshadow="2"
     inkscape:window-width="1920"
     inkscape:window-height="1061"
     id="namedview2025"
     showgrid="false"
     inkscape:zoom="9.993007"
     inkscape:cx="37.276906"
     inkscape:cy="1.8299735"
     inkscape:window-x="0"
     inkscape:window-y="0"
     inkscape:window-maximized="1"
     inkscape:current-layer="svg2023" />
  <text
     xml:space="preserve"
     style="font-style:normal;font-variant:normal;font-weight:normal;font-stretch:normal;font-size:22.60443497px;line-height:1.25;font-family:'sans serif';-inkscape-font-specification:'sans serif';letter-spacing:0px;word-spacing:0px;fill:#ffffff;fill-opacity:1;stroke:none;stroke-width:0.56511086"
     x="43.574665"
     y="23.188585"
     id="text2033"><tspan
       sodipodi:role="line"
       id="tspan2031"
       x="43.574665"
       y="23.188585"
       style="font-style:normal;font-variant:normal;font-weight:500;font-stretch:normal;font-family:Ubuntu;-inkscape-font-specification:'Ubuntu Medium';fill:#ffffff;stroke-width:0.56511086">garments</tspan></text>
  <path
     style="opacity:1;vector-effect:none;fill:#d4aa00;fill-opacity:1;stroke:none;stroke-width:6.80428982;stroke-linecap:butt;stroke-linejoin:round;stroke-miterlimit:4;stroke-dasharray:none;stroke-dashoffset:0;stroke-opacity:1"
     d="m 14.379249,8.5404126 1.382331,2.3935804 2.473816,-1.4282914 z m 6.266439,1.5678604 -1.453372,5.42484 4.073443,1.01961 1.363098,-5.447401 z m -2.005792,7.486629 -1.123253,4.19127 3.199253,0.857475 1.133254,0.303379 z"
     id="path990"
     inkscape:connector-curvature="0" />
  <path
     style="opacity:1;vector-effect:none;fill:#d3bc5f;fill-opacity:1;stroke:none;stroke-width:5.30598593;stroke-linecap:butt;stroke-linejoin:round;stroke-miterlimit:4;stroke-dasharray:none;stroke-dashoffset:0;stroke-opacity:1"
     d="m 4.353078,13.682818 -2.268791,9.066324 4.247935,1.062681 1.20548,-4.818566 5.828341,9.718955 2.215218,-1.328442 4.826587,-2.894459 2.215218,-1.328442 -5.828342,-9.71893 4.81839,1.206111 1.063311,-4.247779 -9.066337,-2.2687884 -1.17974,0.707481 A 4.0441931,4.0441931 0 0 1 10.868442,14.062575 4.0441931,4.0441931 0 0 1 5.52645,12.979161 Z"
     id="rect1065"
     inkscape:connector-curvature="0" />
  <path
     id="path1731"
     d="m 21.665666,1.8016636 -8.093791,4.672951 2.189705,3.7920204 4.301445,-2.4838174 -2.9331,10.9464304 2.495003,0.668534 5.436187,1.456625 2.494991,0.668522 2.933088,-10.946428 2.483237,4.301771 3.792357,-2.189137 -4.672953,-8.0937884 -1.328745,-0.356037 a 4.0441931,4.0441931 0 0 1 -4.840372,2.509249 4.0441931,4.0441931 0 0 1 -2.935484,-4.592783 z"
     style="opacity:1;vector-effect:none;fill:#aade87;fill-opacity:1;stroke:none;stroke-width:5.30598593;stroke-linecap:butt;stroke-linejoin:round;stroke-miterlimit:4;stroke-dasharray:none;stroke-dashoffset:0;stroke-opacity:1"
     inkscape:connector-curvature="0" />
</svg>
