<?xml version="1.0" encoding="UTF-8" standalone="no"?>
<svg
   xmlns:dc="http://purl.org/dc/elements/1.1/"
   xmlns:cc="http://creativecommons.org/ns#"
   xmlns:rdf="http://www.w3.org/1999/02/22-rdf-syntax-ns#"
   xmlns:svg="http://www.w3.org/2000/svg"
   xmlns="http://www.w3.org/2000/svg"
   xmlns:sodipodi="http://sodipodi.sourceforge.net/DTD/sodipodi-0.dtd"
   xmlns:inkscape="http://www.inkscape.org/namespaces/inkscape"
   fill="none"
   viewBox="0 0 35 32"
   version="1.1"
   id="svg1110"
   sodipodi:docname="logo-small.svg"
   inkscape:version="0.92.3 (2405546, 2018-03-11)">
  <metadata
     id="metadata1116">
    <rdf:RDF>
      <cc:Work
         rdf:about="">
        <dc:format>image/svg+xml</dc:format>
        <dc:type
           rdf:resource="http://purl.org/dc/dcmitype/StillImage" />
        <dc:title></dc:title>
      </cc:Work>
    </rdf:RDF>
  </metadata>
  <defs
     id="defs1114" />
  <sodipodi:namedview
     pagecolor="#ffffff"
     bordercolor="#666666"
     borderopacity="1"
     objecttolerance="10"
     gridtolerance="10"
     guidetolerance="10"
     inkscape:pageopacity="0"
     inkscape:pageshadow="2"
     inkscape:window-width="1920"
     inkscape:window-height="1061"
     id="namedview1112"
     showgrid="false"
     inkscape:zoom="17.520608"
     inkscape:cx="6.6324981"
     inkscape:cy="15.406453"
     inkscape:window-x="0"
     inkscape:window-y="0"
     inkscape:window-maximized="1"
     inkscape:current-layer="svg1110" />
  <path
     style="opacity:1;vector-effect:none;fill:#d4aa00;fill-opacity:1;stroke:none;stroke-width:6.4139514;stroke-linecap:butt;stroke-linejoin:round;stroke-miterlimit:4;stroke-dasharray:none;stroke-dashoffset:0;stroke-opacity:1"
     d="m 12.672848,9.2563924 1.303032,2.2562686 2.331901,-1.346357 z m 5.906954,1.4779156 -1.369996,5.113637 3.839764,0.961118 1.284901,-5.134902 z m -1.890726,7.057148 -1.058816,3.950831 3.015723,0.808285 1.068243,0.285975 z"
     id="path990"
     inkscape:connector-curvature="0" />
  <path
     style="opacity:1;vector-effect:none;fill:#d3bc5f;fill-opacity:1;stroke:none;stroke-width:5.00159931;stroke-linecap:butt;stroke-linejoin:round;stroke-miterlimit:4;stroke-dasharray:none;stroke-dashoffset:0;stroke-opacity:1"
     d="m 3.2218434,14.103795 -2.1386382,8.546221 4.0042458,1.001718 1.1363253,-4.542141 5.4939907,9.161411 2.088138,-1.252233 4.549702,-2.728415 2.088138,-1.252234 -5.49399,-9.161388 4.541976,1.136921 1.002312,-4.004099 -8.546232,-2.1386356 -1.112063,0.666895 A 3.8121916,3.8121916 0 0 1 9.3634445,14.461766 3.8121916,3.8121916 0 0 1 4.3279028,13.440505 Z"
     id="rect1065"
     inkscape:connector-curvature="0" />
  <path
     id="path1731"
     d="m 19.541268,2.9042214 -7.629477,4.40488 2.064089,3.5744846 4.054684,-2.3413286 -2.764837,10.3184726 2.351872,0.630181 5.124333,1.373064 2.351862,0.630171 2.764826,-10.318469 2.340783,4.054993 3.574802,-2.063554 -4.404882,-7.6294756 -1.252519,-0.335612 a 3.8121916,3.8121916 0 0 1 -4.562696,2.365302 3.8121916,3.8121916 0 0 1 -2.767086,-4.329311 z"
     style="opacity:1;vector-effect:none;fill:#aade87;fill-opacity:1;stroke:none;stroke-width:5.00159931;stroke-linecap:butt;stroke-linejoin:round;stroke-miterlimit:4;stroke-dasharray:none;stroke-dashoffset:0;stroke-opacity:1"
     inkscape:connector-curvature="0" />
</svg>
